<svg width="135" height="79" viewBox="0 0 135 79" fill="none" xmlns="http://www.w3.org/2000/svg">
<path d="M2.54248 20.0533C2.54248 9.25431 11.2968 0.5 22.0958 0.5H107.699C117.12 0.5 121.766 11.9551 115.006 18.5174C114.595 18.9171 114.151 19.2823 113.679 19.6094L112.679 20.3034C109.018 22.8434 104.752 24.3717 100.311 24.7338L87.8969 25.7461H66.2114C57.636 25.7461 49.2262 28.1075 41.9042 32.5715C39.5436 34.0106 37.3155 35.6566 35.2462 37.4899L30.1293 42.0232C29.4185 42.6529 28.7677 43.3474 28.1854 44.0976C19.8173 54.8788 2.54248 48.9613 2.54248 35.3136V20.0533Z" stroke="white"/>
<path d="M117.959 56.5766C117.959 67.3756 109.205 76.1299 98.4061 76.1299H12.8026C3.38154 76.1299 -1.2642 64.6748 5.49548 58.1125C5.9072 57.7128 6.35102 57.3476 6.82247 57.0205L7.82275 56.3264C11.4835 53.7865 15.7501 52.2581 20.191 51.896L32.605 50.8838H54.2905C62.866 50.8838 71.2758 48.5223 78.5978 44.0584C80.9583 42.6193 83.1864 40.9733 85.2558 39.14L90.3727 34.6067C91.0835 33.9769 91.7342 33.2825 92.3165 32.5323C100.685 21.7511 117.959 27.6685 117.959 41.3163V56.5766Z" stroke="white"/>
</svg>
